<svg id="visual" viewBox="0 0 900 600" width="900" height="600" xmlns="http://www.w3.org/2000/svg" xmlns:xlink="http://www.w3.org/1999/xlink" version="1.1"><g stroke-width="1" stroke-linejoin="bevel"><path d="M496 325L405 417L534 430Z" fill="#081a28" stroke="#081a28"></path><path d="M405 417L463 473L534 430Z" fill="#277297" stroke="#277297"></path><path d="M405 417L404 475L463 473Z" fill="#15384f" stroke="#15384f"></path><path d="M588 491L612 438L534 430Z" fill="#0c2435" stroke="#0c2435"></path><path d="M534 430L635 325L496 325Z" fill="#0c2435" stroke="#0c2435"></path><path d="M463 473L588 491L534 430Z" fill="#1d4e6b" stroke="#1d4e6b"></path><path d="M518 600L588 491L463 473Z" fill="#15384f" stroke="#15384f"></path><path d="M496 325L380 271L405 417Z" fill="#19435d" stroke="#19435d"></path><path d="M405 417L337 469L404 475Z" fill="#0c2435" stroke="#0c2435"></path><path d="M282 361L337 469L405 417Z" fill="#112e42" stroke="#112e42"></path><path d="M612 438L635 325L534 430Z" fill="#1d4e6b" stroke="#1d4e6b"></path><path d="M496 325L462 173L380 271Z" fill="#15384f" stroke="#15384f"></path><path d="M380 271L324 284L405 417Z" fill="#19435d" stroke="#19435d"></path><path d="M324 284L282 361L405 417Z" fill="#00101c" stroke="#00101c"></path><path d="M664 484L679 408L612 438Z" fill="#1d4e6b" stroke="#1d4e6b"></path><path d="M612 438L679 408L635 325Z" fill="#112e42" stroke="#112e42"></path><path d="M588 491L664 484L612 438Z" fill="#112e42" stroke="#112e42"></path><path d="M367 600L463 473L404 475Z" fill="#00101c" stroke="#00101c"></path><path d="M367 600L518 600L463 473Z" fill="#205a7a" stroke="#205a7a"></path><path d="M588 491L614 600L664 484Z" fill="#205a7a" stroke="#205a7a"></path><path d="M579 191L462 173L496 325Z" fill="#205a7a" stroke="#205a7a"></path><path d="M380 271L371 196L324 284Z" fill="#246688" stroke="#246688"></path><path d="M462 173L371 196L380 271Z" fill="#19435d" stroke="#19435d"></path><path d="M220 338L231 409L282 361Z" fill="#112e42" stroke="#112e42"></path><path d="M675 202L579 191L635 325Z" fill="#15384f" stroke="#15384f"></path><path d="M635 325L579 191L496 325Z" fill="#19435d" stroke="#19435d"></path><path d="M265 600L367 600L337 469Z" fill="#19435d" stroke="#19435d"></path><path d="M337 469L367 600L404 475Z" fill="#112e42" stroke="#112e42"></path><path d="M679 408L684 296L635 325Z" fill="#081a28" stroke="#081a28"></path><path d="M220 338L282 361L324 284Z" fill="#19435d" stroke="#19435d"></path><path d="M282 361L231 409L337 469Z" fill="#297ea6" stroke="#297ea6"></path><path d="M518 600L614 600L588 491Z" fill="#0c2435" stroke="#0c2435"></path><path d="M229 161L220 338L324 284Z" fill="#19435d" stroke="#19435d"></path><path d="M684 296L675 202L635 325Z" fill="#205a7a" stroke="#205a7a"></path><path d="M501 72L382 110L462 173Z" fill="#0c2435" stroke="#0c2435"></path><path d="M382 110L298 169L371 196Z" fill="#112e42" stroke="#112e42"></path><path d="M371 196L298 169L324 284Z" fill="#00101c" stroke="#00101c"></path><path d="M172 522L265 600L337 469Z" fill="#081a28" stroke="#081a28"></path><path d="M462 173L382 110L371 196Z" fill="#00101c" stroke="#00101c"></path><path d="M501 72L462 173L579 191Z" fill="#19435d" stroke="#19435d"></path><path d="M614 600L717 600L664 484Z" fill="#205a7a" stroke="#205a7a"></path><path d="M664 484L790 481L679 408Z" fill="#1d4e6b" stroke="#1d4e6b"></path><path d="M679 408L818 367L684 296Z" fill="#205a7a" stroke="#205a7a"></path><path d="M684 296L791 181L675 202Z" fill="#081a28" stroke="#081a28"></path><path d="M594 83L501 72L579 191Z" fill="#19435d" stroke="#19435d"></path><path d="M120 464L172 522L231 409Z" fill="#277297" stroke="#277297"></path><path d="M231 409L172 522L337 469Z" fill="#205a7a" stroke="#205a7a"></path><path d="M717 600L790 481L664 484Z" fill="#297ea6" stroke="#297ea6"></path><path d="M667 107L594 83L579 191Z" fill="#277297" stroke="#277297"></path><path d="M172 522L211 600L265 600Z" fill="#112e42" stroke="#112e42"></path><path d="M412 0L327 91L382 110Z" fill="#15384f" stroke="#15384f"></path><path d="M382 110L327 91L298 169Z" fill="#19435d" stroke="#19435d"></path><path d="M298 169L229 161L324 284Z" fill="#277297" stroke="#277297"></path><path d="M327 91L229 161L298 169Z" fill="#19435d" stroke="#19435d"></path><path d="M220 338L136 329L231 409Z" fill="#112e42" stroke="#112e42"></path><path d="M114 193L136 329L220 338Z" fill="#19435d" stroke="#19435d"></path><path d="M791 181L667 107L675 202Z" fill="#112e42" stroke="#112e42"></path><path d="M675 202L667 107L579 191Z" fill="#1d4e6b" stroke="#1d4e6b"></path><path d="M790 481L818 367L679 408Z" fill="#112e42" stroke="#112e42"></path><path d="M136 329L120 464L231 409Z" fill="#297ea6" stroke="#297ea6"></path><path d="M172 522L98 600L211 600Z" fill="#246688" stroke="#246688"></path><path d="M818 367L832 287L684 296Z" fill="#1d4e6b" stroke="#1d4e6b"></path><path d="M717 600L792 600L790 481Z" fill="#1d4e6b" stroke="#1d4e6b"></path><path d="M900 476L900 385L818 367Z" fill="#081a28" stroke="#081a28"></path><path d="M818 367L900 385L832 287Z" fill="#19435d" stroke="#19435d"></path><path d="M832 287L791 181L684 296Z" fill="#297ea6" stroke="#297ea6"></path><path d="M563 0L503 0L501 72Z" fill="#081a28" stroke="#081a28"></path><path d="M501 72L412 0L382 110Z" fill="#297ea6" stroke="#297ea6"></path><path d="M563 0L501 72L594 83Z" fill="#19435d" stroke="#19435d"></path><path d="M563 0L594 83L712 0Z" fill="#246688" stroke="#246688"></path><path d="M215 66L114 193L229 161Z" fill="#0c2435" stroke="#0c2435"></path><path d="M503 0L412 0L501 72Z" fill="#081a28" stroke="#081a28"></path><path d="M712 0L594 83L667 107Z" fill="#112e42" stroke="#112e42"></path><path d="M229 161L114 193L220 338Z" fill="#112e42" stroke="#112e42"></path><path d="M136 329L61 402L120 464Z" fill="#1d4e6b" stroke="#1d4e6b"></path><path d="M215 66L229 161L327 91Z" fill="#19435d" stroke="#19435d"></path><path d="M0 390L61 402L0 281Z" fill="#15384f" stroke="#15384f"></path><path d="M120 464L98 600L172 522Z" fill="#297ea6" stroke="#297ea6"></path><path d="M296 0L215 66L327 91Z" fill="#19435d" stroke="#19435d"></path><path d="M900 104L777 97L791 181Z" fill="#1d4e6b" stroke="#1d4e6b"></path><path d="M791 181L777 97L667 107Z" fill="#297ea6" stroke="#297ea6"></path><path d="M900 476L818 367L790 481Z" fill="#19435d" stroke="#19435d"></path><path d="M832 287L900 172L791 181Z" fill="#1d4e6b" stroke="#1d4e6b"></path><path d="M0 528L98 600L120 464Z" fill="#0c2435" stroke="#0c2435"></path><path d="M412 0L296 0L327 91Z" fill="#00101c" stroke="#00101c"></path><path d="M900 600L900 476L790 481Z" fill="#112e42" stroke="#112e42"></path><path d="M900 385L900 284L832 287Z" fill="#1d4e6b" stroke="#1d4e6b"></path><path d="M777 97L712 0L667 107Z" fill="#112e42" stroke="#112e42"></path><path d="M0 281L61 402L136 329Z" fill="#15384f" stroke="#15384f"></path><path d="M61 402L0 528L120 464Z" fill="#00101c" stroke="#00101c"></path><path d="M296 0L208 0L215 66Z" fill="#19435d" stroke="#19435d"></path><path d="M215 66L63 103L114 193Z" fill="#297ea6" stroke="#297ea6"></path><path d="M114 193L0 281L136 329Z" fill="#205a7a" stroke="#205a7a"></path><path d="M792 600L900 600L790 481Z" fill="#19435d" stroke="#19435d"></path><path d="M900 284L900 172L832 287Z" fill="#19435d" stroke="#19435d"></path><path d="M777 97L763 0L712 0Z" fill="#297ea6" stroke="#297ea6"></path><path d="M0 233L0 281L114 193Z" fill="#205a7a" stroke="#205a7a"></path><path d="M900 0L763 0L777 97Z" fill="#19435d" stroke="#19435d"></path><path d="M0 390L0 528L61 402Z" fill="#112e42" stroke="#112e42"></path><path d="M63 103L0 233L114 193Z" fill="#246688" stroke="#246688"></path><path d="M104 0L63 103L215 66Z" fill="#0c2435" stroke="#0c2435"></path><path d="M900 172L900 104L791 181Z" fill="#081a28" stroke="#081a28"></path><path d="M0 528L0 600L98 600Z" fill="#112e42" stroke="#112e42"></path><path d="M208 0L104 0L215 66Z" fill="#112e42" stroke="#112e42"></path><path d="M63 103L0 102L0 233Z" fill="#205a7a" stroke="#205a7a"></path><path d="M0 0L0 102L63 103Z" fill="#112e42" stroke="#112e42"></path><path d="M900 104L900 0L777 97Z" fill="#205a7a" stroke="#205a7a"></path><path d="M104 0L0 0L63 103Z" fill="#297ea6" stroke="#297ea6"></path></g></svg>